# xmcd
#
# Track frame offsets:
#	150
#	18071
#	32167
#	47796
#	69485
#	84135
#	96101
#	111681
#	127523
#	145890
#	164458
#	179502
#	192752
#	208724
#
# Disc length: 3040 seconds
#
# Revision: 0
# Processed by: cddbd v1.5.2PL0 Copyright (c) Steve Scherf et al.
# Submitted via: EasyCDDAExtractor 16.0.8.2
#
DISCID=b90bde0e
DTITLE=Άγνωστος - Τα καλ. παραδ. τραγ. 1 Νησιώτικα
DYEAR=1900
DGENRE=Παραδοσιακή
TTITLE0=Θαλασσάκι μου [καλαματιανός]
TTITLE1=Μέσ' στου Αιγαίου [αιγαιοπελαγίτικο]
TTITLE2=Τού ψαρά ο γιός [σέρβικο σμυρναίϊκο]
TTITLE3=Αρτεμώνας [αιγαιοπελαγίτικο]
TTITLE4=Συρτός ασιζιέ [συρτός]
TTITLE5=Ψαράδες [αργός συρτός]
TTITLE6=Από τα γλυκά σου μάτια [σμυρναΐϊκο]
TTITLE7=Μιά Σμυρνιά στο παραθύρι [σμυρναίϊκο]
TTITLE8=Ποταμός [νησιώτικος συρτός]
TTITLE9=Τα παιδιά της γειτονιάς σου [καρσιλαμάς]
TTITLE10=Πολίτικο συρτό [συρτός]
TTITLE11=Έχασα μαντήλι [συρτός]
TTITLE12=Ωραία πού 'ναι την αυγή [αιγαιοπελαγίτικο]
TTITLE13=Σηλυβριανό [συρτός]
EXTD=
EXTT0=
EXTT1=
EXTT2=
EXTT3=
EXTT4=
EXTT5=
EXTT6=
EXTT7=
EXTT8=
EXTT9=
EXTT10=
EXTT11=
EXTT12=
EXTT13=
PLAYORDER=
